<?xml version="1.0" encoding="UTF-8"?>
<svg width="512px" height="448px" viewBox="0 0 512 448" version="1.1" xmlns="http://www.w3.org/2000/svg" xmlns:xlink="http://www.w3.org/1999/xlink">
    <title>employees</title>
    <g id="Page-1" stroke="none" stroke-width="1" fill="none" fill-rule="evenodd">
        <g id="employees" fill="#1F8CED" fill-rule="nonzero">
            <path d="M315.046,329.686 L286.979,329.686 C282.837,329.686 279.479,333.044 279.479,337.186 C279.479,341.329 282.837,344.686 286.979,344.686 L315.046,344.686 C319.188,344.686 322.546,341.329 322.546,337.186 C322.546,333.044 319.188,329.686 315.046,329.686 Z" id="Path"></path>
            <path d="M480.248,249.394 L439.407,233.641 L418.584,212.818 C417.247,211.481 415.524,210.757 413.764,210.644 L413.764,194.075 C423.578,183.611 430.564,170.36 433.383,155.432 C435.133,155.511 436.9,155.37 438.643,155.014 C448.622,152.971 455.865,143.712 455.865,133 L455.865,127.531 C455.865,121.334 453.352,115.646 449.26,111.579 C455.883,75.559 450.428,46.205 433.414,26.558 C416.957,7.555 390.443,-1.528 356.742,0.295 C325.606,1.978 305.506,16.304 299.138,21.545 C295.652,21.959 289.714,23.183 283.704,26.789 C275.374,31.787 265.445,42.286 265.445,63.919 C265.445,82.791 268.461,98.547 270.645,107.486 C263.325,111.052 258.428,118.78 258.428,127.615 L258.428,132.999 C258.428,143.711 265.671,152.97 275.65,155.013 C277.393,155.37 279.161,155.51 280.91,155.431 C283.729,170.359 290.716,183.61 300.529,194.074 L300.529,210.643 C298.769,210.756 297.045,211.48 295.709,212.817 L274.886,233.64 L234.045,249.393 C230.512,250.755 227.137,252.522 224.015,254.643 C220.589,256.971 219.699,261.635 222.026,265.061 C223.477,267.197 225.836,268.347 228.236,268.347 C229.687,268.347 231.153,267.926 232.444,267.05 C234.621,265.571 236.976,264.339 239.443,263.387 L277.346,248.767 L306.326,292.238 C309.918,297.627 315.676,301.084 322.121,301.722 C322.838,301.793 323.555,301.828 324.267,301.828 C327.998,301.828 331.618,300.847 334.822,299.034 L328.603,440.102 C328.42,444.24 331.627,447.743 335.766,447.925 C335.878,447.934 335.99,447.934 336.102,447.934 C340.092,447.934 343.412,444.787 343.589,440.762 L349.361,309.821 L364.931,309.821 L370.703,440.762 C370.88,444.788 374.2,447.934 378.19,447.934 C378.302,447.934 378.414,447.934 378.526,447.925 C382.664,447.743 385.871,444.24 385.689,440.102 L379.47,299.034 C382.674,300.847 386.293,301.828 390.025,301.828 C390.737,301.828 391.454,301.793 392.171,301.722 C398.616,301.084 404.373,297.627 407.966,292.238 L436.946,248.767 L474.849,263.387 C480.165,265.437 484.741,268.708 488.339,272.789 L462.408,298.72 C453.039,308.089 447.88,320.545 447.88,333.793 L447.88,440.433 C447.88,444.575 451.238,447.934 455.38,447.934 C459.522,447.934 462.88,444.575 462.88,440.433 L462.88,333.793 C462.88,324.552 466.479,315.862 473.014,309.327 L495.772,286.569 C496.686,289.922 497.113,293.447 496.969,297.051 L491.16,440.129 C490.992,444.268 494.211,447.759 498.349,447.928 C498.453,447.934 498.556,447.934 498.659,447.934 C502.66,447.934 505.984,444.773 506.147,440.739 L511.958,297.657 C512.809,276.433 500.066,257.038 480.248,249.394 Z M295.592,152.339 C294.269,145.138 287.601,139.904 280.404,140.437 C279.835,140.478 279.249,140.438 278.659,140.318 C275.677,139.708 273.428,136.561 273.428,133 L273.428,127.614 C273.428,124.135 275.753,121.001 278.72,120.48 C281.224,120.04 283.622,120.959 285.139,122.938 C286.516,124.733 288.353,126.017 290.45,126.649 C293.522,127.577 296.909,127.032 299.513,125.194 C304.203,121.883 308.341,117.838 311.812,113.17 C314.284,109.846 313.592,105.148 310.269,102.677 C306.944,100.205 302.247,100.896 299.775,104.22 C298.044,106.548 296.088,108.661 293.935,110.531 C291.557,108.497 288.779,107.027 285.802,106.188 C283.875,98.806 280.445,82.991 280.445,63.917 C280.445,52.43 283.986,44.359 290.969,39.929 C296.418,36.472 302.185,36.334 302.181,36.333 C304.098,36.333 305.964,35.578 307.356,34.261 C307.539,34.089 325.976,16.979 357.55,15.272 C386.452,13.712 408.764,21.008 422.073,36.376 C435.487,51.866 439.954,75.647 435.108,105.412 C433.099,105.341 430.9,105.493 428.711,105.858 L421.665,88.936 C420.227,85.484 416.461,83.62 412.843,84.563 C412.146,84.745 342.885,102.303 313.844,66.147 C311.251,62.918 306.531,62.402 303.3,64.996 C300.071,67.59 299.555,72.31 302.15,75.54 C331.806,112.462 390.65,104.43 410.238,100.513 L415.687,113.598 C418.03,119.223 424.024,122.295 429.932,120.902 C432.357,120.331 434.674,120.318 435.544,120.49 C438.577,121.094 440.864,124.119 440.864,127.529 L440.864,132.999 C440.864,136.561 438.615,139.707 435.633,140.317 C435.044,140.438 434.455,140.478 433.888,140.436 C426.692,139.912 420.024,145.136 418.7,152.339 C413.244,182.043 387.357,203.603 357.146,203.603 C326.935,203.603 301.048,182.043 295.592,152.339 Z M328.863,284.915 C326.961,286.817 324.75,286.91 323.6,286.796 C322.451,286.683 320.3,286.157 318.808,283.919 L289.613,240.127 L301.354,228.386 L346.174,267.604 L328.863,284.915 Z M350.022,294.822 L350.476,284.514 L357.145,277.845 L363.814,284.514 L364.268,294.822 L350.022,294.822 Z M357.146,257.272 L315.529,220.857 L315.529,206.503 C327.629,214.198 341.945,218.603 357.146,218.603 C372.347,218.603 386.664,214.198 398.764,206.503 L398.764,220.857 L357.146,257.272 Z M395.486,283.919 C393.993,286.158 391.842,286.683 390.694,286.796 C389.543,286.91 387.332,286.817 385.43,284.914 L368.119,267.603 L412.939,228.385 L424.68,240.126 L395.486,283.919 Z" id="Shape"></path>
            <path d="M237.845,288.699 L201.223,272.714 L181.204,252.695 C179.863,251.353 178.139,250.633 176.384,250.521 L176.384,238.722 C193.493,227.479 206.013,209.598 210.036,188.291 C212.006,188.379 213.995,188.19 215.955,187.727 C225.552,185.456 232.517,176.259 232.517,165.859 L232.517,160.391 C232.517,152.793 228.747,145.958 222.906,141.948 C224.624,135.142 225.5,128.179 225.5,121.17 C225.5,90.098 208.704,62.73 183.387,47.016 C183.117,21.083 160.982,0.063 133.799,0.063 C106.616,0.063 84.481,21.083 84.211,47.016 C58.895,62.73 42.099,90.099 42.099,121.17 C42.099,128.158 42.969,135.101 44.677,141.888 C38.839,145.878 35.082,152.745 35.082,160.473 L35.082,165.859 C35.082,176.259 42.047,185.456 51.644,187.727 C53.604,188.191 55.592,188.379 57.563,188.291 C61.586,209.598 74.107,227.479 91.216,238.722 L91.216,250.521 C89.461,250.633 87.737,251.353 86.396,252.695 L66.377,272.714 L29.756,288.699 C11.123,296.833 -0.817,315.945 0.044,336.258 L4.473,440.751 C4.644,444.781 7.965,447.935 11.961,447.935 C12.068,447.935 12.176,447.935 12.284,447.927 C16.423,447.752 19.635,444.255 19.46,440.116 L15.03,335.622 C14.745,328.889 16.495,322.356 19.785,316.733 L39.47,340.355 C45.691,347.82 49.116,357.282 49.116,366.998 L49.116,440.434 C49.116,444.576 52.474,447.935 56.616,447.935 C60.758,447.935 64.116,444.576 64.116,440.434 L64.116,366.998 C64.116,353.78 59.455,340.908 50.993,330.753 L30.066,305.64 C31.845,304.414 33.736,303.328 35.757,302.446 L67.673,288.514 L90.227,325.123 C92.454,328.738 96.136,331.189 100.33,331.849 C101.084,331.968 101.84,332.026 102.593,332.026 C106.022,332.026 109.362,330.811 112.01,328.551 L126.302,316.356 L126.302,440.433 C126.302,444.575 129.66,447.935 133.802,447.935 C137.944,447.935 141.302,444.575 141.302,440.433 L141.302,316.358 L155.593,328.553 C158.241,330.813 161.581,332.028 165.01,332.028 C165.762,332.028 166.519,331.969 167.273,331.851 C171.467,331.191 175.149,328.74 177.376,325.125 L199.93,288.515 L231.846,302.447 C233.866,303.329 235.758,304.415 237.537,305.641 L216.61,330.754 C208.148,340.908 203.487,353.781 203.487,366.999 L203.487,440.435 C203.487,444.577 206.845,447.935 210.987,447.935 C215.129,447.935 218.487,444.577 218.487,440.435 L218.487,366.999 C218.487,357.283 221.913,347.821 228.133,340.356 L247.818,316.734 C251.108,322.357 252.858,328.89 252.573,335.623 L248.144,440.117 C247.969,444.255 251.181,447.752 255.32,447.928 C255.428,447.935 255.535,447.935 255.643,447.935 C259.639,447.935 262.96,444.783 263.131,440.752 L267.56,336.259 C268.42,315.946 256.479,296.833 237.845,288.699 Z M133.801,15.063 C149.757,15.063 163.219,25.242 167.2,39.034 C156.846,35.126 145.58,32.977 133.801,32.977 C122.022,32.977 110.756,35.126 100.402,39.034 C104.383,25.242 117.844,15.063 133.801,15.063 Z M72.246,185.2 C70.924,177.997 64.245,172.765 57.059,173.297 C56.422,173.342 55.764,173.288 55.1,173.13 C52.24,172.453 50.083,169.327 50.083,165.859 L50.083,160.473 C50.083,156.994 52.408,153.86 55.375,153.339 C57.879,152.899 60.276,153.819 61.792,155.796 C63.169,157.592 65.006,158.876 67.105,159.51 C70.176,160.438 73.565,159.893 76.167,158.054 C80.786,154.794 84.87,150.82 88.306,146.244 C90.793,142.932 90.124,138.23 86.812,135.744 C83.499,133.257 78.798,133.926 76.311,137.238 C74.61,139.503 72.695,141.562 70.589,143.391 C67.38,140.647 63.445,138.929 59.271,138.408 C57.834,132.759 57.099,126.982 57.099,121.171 C57.099,80.813 91.507,47.978 133.801,47.978 C176.094,47.978 210.502,80.812 210.502,121.171 C210.502,126.971 209.771,132.736 208.339,138.375 C206.365,138.532 204.359,138.855 202.502,139.337 L196.864,134.701 C194.031,132.371 190.465,131.205 186.856,131.42 C175.832,132.071 119.374,133.562 90.408,98.896 C87.752,95.718 83.023,95.294 79.844,97.95 C76.665,100.606 76.242,105.336 78.898,108.514 C93.184,125.611 114.137,137.172 141.174,142.876 C161.875,147.243 180.277,146.819 187.487,146.408 L196.283,153.641 C198.704,155.632 202.099,155.913 204.81,154.335 C206.082,153.642 210.342,152.98 212.201,153.351 C215.234,153.954 217.52,156.98 217.52,160.391 L217.52,165.859 C217.52,169.328 215.363,172.454 212.503,173.13 C211.84,173.287 211.181,173.344 210.544,173.296 C203.362,172.774 196.679,177.997 195.356,185.199 C189.9,214.904 164.013,236.464 133.802,236.464 C103.59,236.464 77.702,214.904 72.246,185.2 Z M102.702,316.776 L80.144,280.16 L91.7,268.604 L122.758,299.662 L102.702,316.776 Z M133.801,289.491 L106.217,261.907 L106.217,246.391 C114.828,249.669 124.133,251.464 133.801,251.464 C143.469,251.464 152.774,249.669 161.385,246.392 L161.385,261.907 L133.801,289.491 Z M164.9,316.776 L144.844,299.662 L175.902,268.604 L187.458,280.16 L164.9,316.776 Z" id="Shape"></path>
            <path d="M105.734,362.766 L84.684,362.766 C80.542,362.766 77.184,366.124 77.184,370.266 C77.184,374.408 80.542,377.766 84.684,377.766 L105.734,377.766 C109.876,377.766 113.234,374.408 113.234,370.266 C113.234,366.124 109.876,362.766 105.734,362.766 Z" id="Path"></path>
        </g>
    </g>
</svg>