<?xml version="1.0" encoding="UTF-8"?>
<svg width="512px" height="512px" viewBox="0 0 512 512" version="1.1" xmlns="http://www.w3.org/2000/svg" xmlns:xlink="http://www.w3.org/1999/xlink">
    <title>team (1)</title>
    <g id="Page-1" stroke="none" stroke-width="1" fill="none" fill-rule="evenodd">
        <g id="team-(1)" fill="#1F8CED" fill-rule="nonzero">
            <path d="M504.5,284.89 C508.643,284.89 512,281.532 512,277.39 L512,259.03 C512,232.613 490.508,211.12 464.09,211.12 L458.533,211.12 C470.269,200.498 477.655,185.154 477.655,168.116 C477.655,136.13 451.633,110.108 419.647,110.108 C387.661,110.108 361.639,136.13 361.639,168.116 C361.639,185.154 369.025,200.498 380.761,211.12 L375.201,211.12 C357.241,211.12 341.047,221.102 332.845,236.604 C331.836,236.289 330.819,235.991 329.791,235.716 L289.766,224.996 L289.766,203.687 C308.718,192.375 321.548,171.853 322.055,148.342 L330.754,148.342 C343.802,148.342 354.417,137.727 354.417,124.679 C354.417,113.518 346.647,104.143 336.233,101.664 L336.233,81.242 C336.231,36.445 299.787,0 254.99,0 C210.193,0 173.748,36.445 173.748,81.242 L173.748,102.242 C164.366,105.386 157.585,114.253 157.585,124.679 C157.585,137.726 168.2,148.342 181.248,148.342 L189.947,148.342 C190.454,171.852 203.283,192.375 222.236,203.687 L222.236,224.996 L182.209,235.716 C181.182,235.992 180.165,236.289 179.157,236.604 C170.955,221.103 154.761,211.12 136.801,211.12 L131.241,211.12 C142.977,200.498 150.363,185.154 150.363,168.116 C150.363,136.13 124.341,110.108 92.355,110.108 C60.369,110.108 34.347,136.13 34.347,168.116 C34.347,185.154 41.733,200.498 53.469,211.12 L47.91,211.12 C21.492,211.12 1.13686838e-13,232.612 1.13686838e-13,259.03 L1.13686838e-13,277.39 C1.13686838e-13,281.532 3.357,284.89 7.5,284.89 C11.643,284.89 15,281.532 15,277.39 L15,259.03 C15,240.884 29.764,226.12 47.91,226.12 L136.8,226.12 C148.691,226.12 159.435,232.502 165.245,242.493 C140.448,255.937 124.25,282.144 124.25,311.26 L124.25,351.54 L15,351.54 L15,312.39 C15,308.248 11.643,304.89 7.5,304.89 C3.357,304.89 1.13686838e-13,308.248 1.13686838e-13,312.39 L1.13686838e-13,359.04 C1.13686838e-13,363.182 3.357,366.54 7.5,366.54 L176.253,366.54 C170.124,376.104 165.638,386.868 163.28,398.488 C162.457,402.548 165.08,406.506 169.139,407.33 C173.196,408.152 177.158,405.531 177.981,401.472 C185.471,364.561 218.283,337.77 256.001,337.77 C299.898,337.77 335.611,373.487 335.611,417.39 C335.611,461.287 299.898,497 256.001,497 C218.282,497 185.47,470.214 177.981,433.308 C177.158,429.248 173.196,426.627 169.139,427.45 C165.079,428.274 162.456,432.232 163.28,436.292 C172.182,480.16 211.176,512 256,512 C308.168,512 350.61,469.558 350.61,417.39 C350.61,398.687 345.155,381.235 335.754,366.54 L504.5,366.54 C508.643,366.54 512,363.182 512,359.04 L512,312.39 C512,308.248 508.643,304.89 504.5,304.89 C500.357,304.89 497,308.248 497,312.39 L497,351.54 L387.75,351.54 L387.75,311.26 C387.75,282.145 371.553,255.938 346.755,242.493 C352.565,232.502 363.309,226.12 375.2,226.12 L464.09,226.12 C482.236,226.12 497,240.883 497,259.03 L497,277.39 C497,281.532 500.357,284.89 504.5,284.89 L504.5,284.89 Z M49.346,168.116 C49.346,144.402 68.639,125.108 92.354,125.108 C116.069,125.108 135.362,144.401 135.362,168.116 C135.362,191.779 116.152,211.037 92.508,211.12 L92.2,211.12 C68.556,211.036 49.346,191.779 49.346,168.116 Z M240.082,260.513 L232.822,266.563 C229.444,269.378 225.1,270.242 220.899,268.929 C216.702,267.617 213.621,264.433 212.447,260.194 L208.051,244.323 L223.582,240.163 C226.137,248.946 232.166,256.262 240.082,260.513 L240.082,260.513 Z M288.418,240.164 L303.949,244.323 L299.553,260.194 C298.38,264.433 295.299,267.616 291.102,268.928 C286.901,270.24 282.557,269.377 279.179,266.562 L271.919,260.512 C279.834,256.262 285.863,248.946 288.418,240.164 L288.418,240.164 Z M339.415,124.679 C339.415,129.455 335.528,133.342 330.752,133.342 L322.09,133.342 L322.09,116.017 L328.732,116.017 L330.753,116.017 C335.528,116.016 339.415,119.902 339.415,124.679 Z M188.748,81.242 C188.748,44.716 218.464,15 254.99,15 C291.515,15 321.231,44.716 321.231,81.242 L321.231,101.016 L296.406,101.016 C289.401,101.016 283.703,95.317 283.703,88.313 C283.703,84.171 280.346,80.813 276.203,80.813 C272.06,80.813 268.703,84.171 268.703,88.313 C268.703,95.317 263.005,101.016 256,101.016 L188.748,101.016 L188.748,81.242 Z M172.585,124.679 C172.585,119.903 176.472,116.016 181.248,116.016 L189.91,116.016 L189.91,133.341 L181.248,133.341 C176.472,133.341 172.585,129.455 172.585,124.679 L172.585,124.679 Z M204.91,146.902 L204.91,116.016 L256,116.016 C263.959,116.016 271.146,112.642 276.203,107.249 C281.261,112.642 288.447,116.016 296.406,116.016 L307.09,116.016 L307.09,146.902 C307.09,175.073 284.171,197.991 256,197.991 C227.829,197.991 204.91,175.073 204.91,146.902 L204.91,146.902 Z M256,212.992 C262.518,212.992 268.812,212.028 274.765,210.262 L274.765,230.746 C274.765,241.093 266.347,249.51 256,249.51 C245.653,249.51 237.235,241.093 237.235,230.746 L237.235,210.262 C243.188,212.028 249.482,212.992 256,212.992 Z M372.75,311.26 L372.75,351.54 L323.869,351.54 C306.663,333.808 282.598,322.77 256,322.77 C229.764,322.77 205.535,333.692 188.158,351.54 L139.25,351.54 L139.25,311.26 C139.25,282.708 158.513,257.601 186.091,250.205 L193.561,248.204 L197.99,264.197 C200.512,273.304 207.403,280.426 216.423,283.245 C219.156,284.099 221.953,284.517 224.728,284.517 C231.108,284.517 237.365,282.302 242.425,278.085 L256,266.773 L269.575,278.086 C274.637,282.303 280.891,284.518 287.272,284.518 C290.046,284.518 292.843,284.1 295.577,283.246 C304.597,280.426 311.487,273.305 314.009,264.198 L318.439,248.204 L325.908,250.204 C353.487,257.601 372.75,282.708 372.75,311.26 Z M376.639,168.116 C376.639,144.402 395.932,125.108 419.647,125.108 C443.362,125.108 462.655,144.401 462.655,168.116 C462.655,191.779 443.445,211.037 419.801,211.12 L419.493,211.12 C395.849,211.036 376.639,191.779 376.639,168.116 Z" id="Shape"></path>
            <path d="M245.524,461.827 C252.24,461.827 258.553,459.212 263.303,454.463 L301.898,415.868 C311.701,406.065 311.701,390.113 301.897,380.309 C292.093,370.506 276.142,370.508 266.338,380.309 L245.524,401.125 C235.709,391.459 219.86,391.504 210.101,401.261 C200.299,411.064 200.299,427.015 210.101,436.819 L227.746,454.463 C232.495,459.212 238.809,461.827 245.524,461.827 L245.524,461.827 Z M220.708,411.869 C222.687,409.891 225.284,408.903 227.882,408.903 C230.48,408.903 233.077,409.892 235.054,411.868 L240.221,417.036 C241.627,418.443 243.535,419.233 245.525,419.233 C247.515,419.233 249.421,418.443 250.829,417.036 L276.946,390.917 C280.901,386.963 287.337,386.96 291.292,390.917 C295.247,394.872 295.247,401.307 291.292,405.262 L252.698,443.856 C250.782,445.772 248.234,446.827 245.525,446.827 C242.816,446.827 240.268,445.772 238.353,443.857 L220.709,426.214 C216.754,422.259 216.754,415.823 220.708,411.869 L220.708,411.869 Z" id="Shape"></path>
        </g>
    </g>
</svg>