<?xml version="1.0" encoding="UTF-8"?>
<svg width="512px" height="512px" viewBox="0 0 512 512" version="1.1" xmlns="http://www.w3.org/2000/svg" xmlns:xlink="http://www.w3.org/1999/xlink">
    <title>factory</title>
    <g id="Page-1" stroke="none" stroke-width="1" fill="none" fill-rule="evenodd">
        <g id="factory" fill="#1F8CED" fill-rule="nonzero">
            <path d="M390.889,59.449 L416.863,59.449 C427.797,59.449 436.691,68.344 436.691,79.277 L436.691,89.815 C436.691,100.749 427.796,109.644 416.863,109.644 C402.289,109.644 390.431,121.501 390.431,136.076 L390.431,147.037 C390.431,151.179 393.788,154.537 397.931,154.537 C402.074,154.537 405.431,151.179 405.431,147.037 L405.431,136.076 C405.431,129.773 410.559,124.644 416.863,124.644 C436.067,124.644 451.691,109.02 451.691,89.815 L451.691,79.277 C451.691,60.073 436.067,44.449 416.863,44.449 L390.889,44.449 C384.427,44.449 379.17,39.192 379.17,32.731 L379.17,7.5 C379.17,3.358 375.813,-1.42108547e-14 371.67,-1.42108547e-14 C367.527,-1.42108547e-14 364.17,3.358 364.17,7.5 L364.17,32.73 C364.17,47.463 376.156,59.449 390.889,59.449 L390.889,59.449 Z" id="Path"></path>
            <path d="M352.466,118.361 C357.567,118.361 361.717,122.511 361.717,127.612 L361.717,139.813 C361.717,143.955 365.074,147.313 369.217,147.313 C373.36,147.313 376.717,143.955 376.717,139.813 L376.717,127.612 C376.717,114.24 365.838,103.361 352.466,103.361 C347.365,103.361 343.216,99.211 343.216,94.111 L343.216,77.847 C343.216,73.705 339.859,70.347 335.716,70.347 C331.573,70.347 328.216,73.705 328.216,77.847 L328.216,94.111 C328.216,107.482 339.095,118.361 352.466,118.361 Z" id="Path"></path>
            <path d="M407.931,29.328 C412.074,29.328 415.431,25.97 415.431,21.828 L415.431,7.567 C415.431,3.425 412.074,0.067 407.931,0.067 C403.788,0.067 400.431,3.425 400.431,7.567 L400.431,21.828 C400.431,25.97 403.788,29.328 407.931,29.328 Z" id="Path"></path>
            <path d="M304.798,452.302 C300.655,452.302 297.298,455.659 297.298,459.802 L297.298,466.881 C297.298,471.024 300.655,474.381 304.798,474.381 C308.941,474.381 312.298,471.024 312.298,466.881 L312.298,459.802 C312.298,455.66 308.94,452.302 304.798,452.302 Z" id="Path"></path>
            <path d="M351.638,452.302 C347.495,452.302 344.138,455.659 344.138,459.802 L344.138,466.881 C344.138,471.024 347.495,474.381 351.638,474.381 C355.781,474.381 359.138,471.024 359.138,466.881 L359.138,459.802 C359.138,455.66 355.78,452.302 351.638,452.302 Z" id="Path"></path>
            <path d="M398.478,452.302 C394.335,452.302 390.978,455.659 390.978,459.802 L390.978,466.881 C390.978,471.024 394.335,474.381 398.478,474.381 C402.621,474.381 405.978,471.024 405.978,466.881 L405.978,459.802 C405.978,455.66 402.62,452.302 398.478,452.302 Z" id="Path"></path>
            <path d="M445.316,452.302 C441.173,452.302 437.816,455.659 437.816,459.802 L437.816,466.881 C437.816,471.024 441.173,474.381 445.316,474.381 C449.459,474.381 452.816,471.024 452.816,466.881 L452.816,459.802 C452.816,455.66 449.459,452.302 445.316,452.302 Z" id="Path"></path>
            <path d="M504.5,497 L494.771,497 L494.771,445.625 C494.771,433.569 484.963,423.762 472.908,423.762 L443.082,423.762 C443.071,423.628 422.077,176.127 422.042,175.719 C421.511,169.44 416.158,164.521 409.855,164.521 L370.006,164.521 C363.601,164.521 358.362,169.334 357.819,175.717 C333.417,463.525 358.305,169.987 343.031,350.082 L270.343,350.082 L270.343,324.206 C270.343,321.109 268.44,318.331 265.553,317.213 L251.448,311.748 C247.586,310.249 243.241,312.169 241.745,316.031 C240.249,319.893 242.167,324.238 246.029,325.734 L255.343,329.343 L255.343,497 L201.226,497 L201.226,453.83 C201.226,449.687 197.868,446.33 193.726,446.33 L93.848,446.33 C89.706,446.33 86.348,449.687 86.348,453.83 L86.348,497 L32.23,497 L32.23,242.913 L216.042,314.118 C219.905,315.618 224.249,313.696 225.745,309.834 C227.241,305.972 225.323,301.628 221.46,300.132 L80.764,245.628 L80.764,191.882 C80.764,187.74 77.406,184.382 73.264,184.382 C69.122,184.382 65.764,187.74 65.764,191.882 L65.764,239.817 L27.44,224.971 C25.135,224.077 22.533,224.378 20.492,225.777 C18.451,227.175 17.231,229.49 17.231,231.965 L17.231,497 L7.5,497 C3.358,497 -5.68434189e-14,500.357 -5.68434189e-14,504.5 C-5.68434189e-14,508.643 3.358,512 7.5,512 L504.5,512 C508.643,512 512,508.643 512,504.5 C512,500.357 508.643,497 504.5,497 Z M270.344,423.762 L270.344,398.819 L338.896,398.819 L336.779,423.762 L270.344,423.762 Z M428.027,423.761 L351.833,423.761 C352.949,410.603 355.347,382.337 356.058,373.95 L374.936,373.95 C379.079,373.95 382.436,370.593 382.436,366.45 C382.436,362.307 379.079,358.95 374.936,358.95 L357.33,358.95 C357.714,354.419 361.167,313.719 361.555,309.14 L418.304,309.14 L422.529,358.95 L404.923,358.95 C400.78,358.95 397.423,362.307 397.423,366.45 C397.423,370.593 400.78,373.95 404.923,373.95 L423.801,373.95 L428.027,423.761 Z M417.032,294.141 L362.828,294.141 L367.053,244.331 L412.807,244.331 L417.032,294.141 Z M372.551,179.521 L407.31,179.521 L411.535,229.331 L368.326,229.331 L372.551,179.521 Z M341.759,365.082 L340.169,383.819 L270.344,383.819 L270.344,365.082 L341.759,365.082 Z M101.348,497 L101.348,461.33 L186.227,461.33 L186.227,497 L101.348,497 Z M270.344,497 L270.344,438.762 L472.907,438.762 C476.691,438.762 479.77,441.841 479.77,445.625 L479.77,497 L270.344,497 Z" id="Shape"></path>
            <path d="M67.225,282.892 C64.93,282.082 62.384,282.438 60.398,283.843 C58.411,285.249 57.23,287.531 57.23,289.965 L57.23,332.904 C57.23,337.047 60.589,340.404 64.731,340.404 C68.873,340.404 72.231,337.047 72.231,332.904 L72.231,300.562 L110.821,314.171 L110.821,390.394 L72.23,390.394 L72.23,362.891 C72.23,358.748 68.872,355.391 64.73,355.391 C60.588,355.391 57.23,358.748 57.23,362.891 L57.23,397.894 C57.23,402.037 60.588,405.394 64.73,405.394 L222.84,405.394 C226.982,405.394 230.34,402.037 230.34,397.894 L230.34,345.724 C230.34,342.543 228.334,339.708 225.335,338.651 L67.225,282.892 Z M125.82,319.462 L161.75,332.133 L161.75,390.395 L125.82,390.395 L125.82,319.462 Z M215.34,390.395 L176.75,390.395 L176.75,337.423 L215.34,351.032 L215.34,390.395 Z" id="Shape"></path>
        </g>
    </g>
</svg>